<svg width="133" height="118" viewBox="0 0 133 118" fill="none" xmlns="http://www.w3.org/2000/svg">
<rect y="7" width="62" height="111" rx="4" fill="white"/>
<rect x="0.25" y="7.25" width="61.5" height="110.5" rx="3.75" stroke="black" stroke-opacity="0.3" stroke-width="0.5"/>
<path d="M24.1951 27L18.4715 28.4463L14 38.2085L18.4715 41.101V61.7101H43.5122L43.1545 41.101L48.1626 38.2085L43.1545 28.4463L36.7154 27M24.1951 27C25.2087 28.0244 28.0228 30.0733 31.1707 30.0733C34.3187 30.0733 36.1789 28.0244 36.7154 27M24.1951 27H36.7154" stroke="black" stroke-opacity="0.5" stroke-width="2"/>
<rect x="6" y="84" width="51" height="4" fill="#EAEEF7"/>
<rect x="6" y="91" width="51" height="4" fill="#EAEEF7"/>
<rect x="6" y="98" width="51" height="4" fill="#EAEEF7"/>
<rect x="70" y="7" width="62" height="111" rx="4" fill="white"/>
<rect x="70.5" y="7.5" width="61" height="110" rx="3.5" stroke="black" stroke-opacity="0.2"/>
<path d="M94.1951 27L88.4715 28.4463L84 38.2085L88.4715 41.101V61.7101H113.512L113.154 41.101L118.163 38.2085L113.154 28.4463L106.715 27M94.1951 27C95.2087 28.0244 98.0228 30.0733 101.171 30.0733C104.319 30.0733 106.179 28.0244 106.715 27M94.1951 27H106.715" stroke="black" stroke-opacity="0.5" stroke-width="2"/>
<rect x="76" y="84" width="51" height="4" fill="#EAEEF7"/>
<rect x="76" y="91" width="51" height="4" fill="#EAEEF7"/>
<rect x="76" y="98" width="51" height="4" fill="#EAEEF7"/>
<rect x="6" y="84" width="51" height="4" fill="#EAEEF7"/>
<rect x="6" y="91" width="51" height="4" fill="#EAEEF7"/>
<rect x="6" y="98" width="51" height="4" fill="#EAEEF7"/>
<rect x="76" y="84" width="51" height="4" fill="#EAEEF7"/>
<rect x="76" y="91" width="51" height="4" fill="#EAEEF7"/>
<rect x="76" y="98" width="51" height="4" fill="#EAEEF7"/>
</svg>
