<svg width="127" height="118" viewBox="0 0 127 118" fill="none" xmlns="http://www.w3.org/2000/svg">
<rect x="64" y="7" width="62" height="111" fill="white"/>
<path d="M88.1951 27L82.4715 28.4463L78 38.2085L82.4715 41.101V61.7101H107.512L107.154 41.101L112.163 38.2085L107.154 28.4463L100.715 27M88.1951 27C89.2087 28.0244 92.0228 30.0733 95.1707 30.0733C98.3187 30.0733 100.179 28.0244 100.715 27M88.1951 27H100.715" stroke="black" stroke-opacity="0.88" stroke-width="2"/>
<rect x="70" y="84" width="51" height="4" fill="#EAEEF7"/>
<rect x="70" y="91" width="51" height="4" fill="#EAEEF7"/>
<rect x="70" y="98" width="51" height="4" fill="#EAEEF7"/>
<path d="M18.1951 27L12.4715 28.4463L8 38.2085L12.4715 41.101V61.7101H37.5122L37.1545 41.101L42.1626 38.2085L37.1545 28.4463L30.7154 27M18.1951 27C19.2087 28.0244 22.0228 30.0733 25.1707 30.0733C28.3187 30.0733 30.1789 28.0244 30.7154 27M18.1951 27H30.7154" stroke="black" stroke-opacity="0.88" stroke-width="2"/>
<rect y="84" width="51" height="4" fill="#EAEEF7"/>
<rect y="91" width="51" height="4" fill="#EAEEF7"/>
<rect y="98" width="51" height="4" fill="#EAEEF7"/>
<path d="M88.1951 27L82.4715 28.4463L78 38.2085L82.4715 41.101V61.7101H107.512L107.154 41.101L112.163 38.2085L107.154 28.4463L100.715 27M88.1951 27C89.2087 28.0244 92.0228 30.0733 95.1707 30.0733C98.3187 30.0733 100.179 28.0244 100.715 27M88.1951 27H100.715" stroke="black" stroke-opacity="0.88" stroke-width="2"/>
<rect x="70" y="84" width="51" height="4" fill="#EAEEF7"/>
<rect x="70" y="91" width="51" height="4" fill="#EAEEF7"/>
<rect x="70" y="98" width="51" height="4" fill="#EAEEF7"/>
</svg>
