<svg width="123" height="113" viewBox="0 0 123 113" fill="none" xmlns="http://www.w3.org/2000/svg">
<rect width="123" height="16" rx="1" fill="white"/>
<rect x="4" y="14" width="31" height="2" rx="1" fill="black" fill-opacity="0.2"/>
<rect x="4" y="7" width="31" height="4" rx="1" fill="black" fill-opacity="0.2"/>
<rect x="3.5" y="20" width="27.4547" height="40.9465" rx="4" fill="white"/>
<rect x="3.75" y="20.25" width="26.9547" height="40.4465" rx="3.75" stroke="black" stroke-opacity="0.3" stroke-width="0.5"/>
<rect x="3.5" y="20" width="27.4547" height="40.9465" rx="1" fill="white"/>
<rect x="3.75" y="20.25" width="26.9547" height="40.4465" rx="0.75" stroke="black" stroke-opacity="0.3" stroke-width="0.5"/>
<path d="M14.0477 25.5527L11.4954 26.2452L9.50137 30.9194L11.4954 32.3043V42.1719H22.6619L22.5024 32.3043L24.7357 30.9194L22.5024 26.2452L19.631 25.5527M14.0477 25.5527C14.4997 26.0432 15.7546 27.0242 17.1584 27.0242C18.5622 27.0242 19.3917 26.0432 19.631 25.5527M14.0477 25.5527H19.631" stroke="black" stroke-opacity="0.5"/>
<rect x="6.15773" y="48.4044" width="22.5837" height="1.47555" fill="#EAEEF7"/>
<rect x="6.15773" y="50.9865" width="22.5837" height="1.47555" fill="#EAEEF7"/>
<rect x="6.15773" y="53.5688" width="22.5837" height="1.47555" fill="#EAEEF7"/>
<rect x="33.0453" y="20" width="27.4547" height="40.9465" rx="1" fill="white"/>
<rect x="33.2953" y="20.25" width="26.9547" height="40.4465" rx="0.75" stroke="black" stroke-opacity="0.3" stroke-width="0.5"/>
<path d="M43.593 25.5527L41.0407 26.2452L39.0466 30.9194L41.0407 32.3043V42.1719H52.2071L52.0476 32.3043L54.2809 30.9194L52.0476 26.2452L49.1762 25.5527M43.593 25.5527C44.045 26.0432 45.2999 27.0242 46.7037 27.0242C48.1075 27.0242 48.937 26.0432 49.1762 25.5527M43.593 25.5527H49.1762" stroke="black" stroke-opacity="0.5"/>
<rect x="35.703" y="48.4044" width="22.5837" height="1.47555" fill="#EAEEF7"/>
<rect x="35.703" y="50.9865" width="22.5837" height="1.47555" fill="#EAEEF7"/>
<rect x="35.703" y="53.5688" width="22.5837" height="1.47555" fill="#EAEEF7"/>
<rect x="62.5" y="20" width="27.4547" height="40.9465" rx="4" fill="white"/>
<rect x="62.75" y="20.25" width="26.9547" height="40.4465" rx="3.75" stroke="black" stroke-opacity="0.3" stroke-width="0.5"/>
<rect x="62.5" y="20" width="27.4547" height="40.9465" rx="1" fill="white"/>
<rect x="62.75" y="20.25" width="26.9547" height="40.4465" rx="0.75" stroke="black" stroke-opacity="0.3" stroke-width="0.5"/>
<path d="M73.0477 25.5527L70.4954 26.2452L68.5014 30.9194L70.4954 32.3043V42.1719H81.6619L81.5024 32.3043L83.7357 30.9194L81.5024 26.2452L78.631 25.5527M73.0477 25.5527C73.4997 26.0432 74.7546 27.0242 76.1584 27.0242C77.5622 27.0242 78.3917 26.0432 78.631 25.5527M73.0477 25.5527H78.631" stroke="black" stroke-opacity="0.5"/>
<rect x="65.1577" y="48.4044" width="22.5837" height="1.47555" fill="#EAEEF7"/>
<rect x="65.1577" y="50.9865" width="22.5837" height="1.47555" fill="#EAEEF7"/>
<rect x="65.1577" y="53.5688" width="22.5837" height="1.47555" fill="#EAEEF7"/>
<rect x="92.0453" y="20" width="27.4547" height="40.9465" rx="1" fill="white"/>
<rect x="92.2953" y="20.25" width="26.9547" height="40.4465" rx="0.75" stroke="black" stroke-opacity="0.3" stroke-width="0.5"/>
<path d="M102.593 25.5527L100.041 26.2452L98.0466 30.9194L100.041 32.3043V42.1719H111.207L111.048 32.3043L113.281 30.9194L111.048 26.2452L108.176 25.5527M102.593 25.5527C103.045 26.0432 104.3 27.0242 105.704 27.0242C107.107 27.0242 107.937 26.0432 108.176 25.5527M102.593 25.5527H108.176" stroke="black" stroke-opacity="0.5"/>
<rect x="94.703" y="48.4044" width="22.5837" height="1.47555" fill="#EAEEF7"/>
<rect x="94.703" y="50.9865" width="22.5837" height="1.47555" fill="#EAEEF7"/>
<rect x="94.703" y="53.5688" width="22.5837" height="1.47555" fill="#EAEEF7"/>
<rect x="3.5" y="20" width="27.4547" height="40.9465" rx="4" fill="white"/>
<rect x="3.75" y="20.25" width="26.9547" height="40.4465" rx="3.75" stroke="black" stroke-opacity="0.3" stroke-width="0.5"/>
<rect x="3.5" y="20" width="27.4547" height="40.9465" rx="1" fill="white"/>
<rect x="3.75" y="20.25" width="26.9547" height="40.4465" rx="0.75" stroke="black" stroke-opacity="0.3" stroke-width="0.5"/>
<path d="M14.0477 25.5527L11.4954 26.2452L9.50137 30.9194L11.4954 32.3043V42.1719H22.6619L22.5024 32.3043L24.7357 30.9194L22.5024 26.2452L19.631 25.5527M14.0477 25.5527C14.4997 26.0432 15.7546 27.0242 17.1584 27.0242C18.5622 27.0242 19.3917 26.0432 19.631 25.5527M14.0477 25.5527H19.631" stroke="black" stroke-opacity="0.5"/>
<rect x="6.15773" y="48.4044" width="22.5837" height="1.47555" fill="#EAEEF7"/>
<rect x="6.15773" y="50.9865" width="22.5837" height="1.47555" fill="#EAEEF7"/>
<rect x="6.15773" y="53.5688" width="22.5837" height="1.47555" fill="#EAEEF7"/>
<rect x="33.0453" y="20" width="27.4547" height="40.9465" rx="1" fill="white"/>
<rect x="33.2953" y="20.25" width="26.9547" height="40.4465" rx="0.75" stroke="black" stroke-opacity="0.3" stroke-width="0.5"/>
<path d="M43.593 25.5527L41.0407 26.2452L39.0466 30.9194L41.0407 32.3043V42.1719H52.2071L52.0476 32.3043L54.2809 30.9194L52.0476 26.2452L49.1762 25.5527M43.593 25.5527C44.045 26.0432 45.2999 27.0242 46.7037 27.0242C48.1075 27.0242 48.937 26.0432 49.1762 25.5527M43.593 25.5527H49.1762" stroke="black" stroke-opacity="0.5"/>
<rect x="35.703" y="48.4044" width="22.5837" height="1.47555" fill="#EAEEF7"/>
<rect x="35.703" y="50.9865" width="22.5837" height="1.47555" fill="#EAEEF7"/>
<rect x="35.703" y="53.5688" width="22.5837" height="1.47555" fill="#EAEEF7"/>
<rect x="62.5" y="20" width="27.4547" height="40.9465" rx="4" fill="white"/>
<rect x="62.75" y="20.25" width="26.9547" height="40.4465" rx="3.75" stroke="black" stroke-opacity="0.3" stroke-width="0.5"/>
<rect x="62.5" y="20" width="27.4547" height="40.9465" rx="1" fill="white"/>
<rect x="62.75" y="20.25" width="26.9547" height="40.4465" rx="0.75" stroke="black" stroke-opacity="0.3" stroke-width="0.5"/>
<path d="M73.0477 25.5527L70.4954 26.2452L68.5014 30.9194L70.4954 32.3043V42.1719H81.6619L81.5024 32.3043L83.7357 30.9194L81.5024 26.2452L78.631 25.5527M73.0477 25.5527C73.4997 26.0432 74.7546 27.0242 76.1584 27.0242C77.5622 27.0242 78.3917 26.0432 78.631 25.5527M73.0477 25.5527H78.631" stroke="black" stroke-opacity="0.5"/>
<rect x="65.1577" y="48.4044" width="22.5837" height="1.47555" fill="#EAEEF7"/>
<rect x="65.1577" y="50.9865" width="22.5837" height="1.47555" fill="#EAEEF7"/>
<rect x="65.1577" y="53.5688" width="22.5837" height="1.47555" fill="#EAEEF7"/>
<rect x="92.0453" y="20" width="27.4547" height="40.9465" rx="1" fill="white"/>
<rect x="92.2953" y="20.25" width="26.9547" height="40.4465" rx="0.75" stroke="black" stroke-opacity="0.3" stroke-width="0.5"/>
<path d="M102.593 25.5527L100.041 26.2452L98.0466 30.9194L100.041 32.3043V42.1719H111.207L111.048 32.3043L113.281 30.9194L111.048 26.2452L108.176 25.5527M102.593 25.5527C103.045 26.0432 104.3 27.0242 105.704 27.0242C107.107 27.0242 107.937 26.0432 108.176 25.5527M102.593 25.5527H108.176" stroke="black" stroke-opacity="0.5"/>
<rect x="94.703" y="48.4044" width="22.5837" height="1.47555" fill="#EAEEF7"/>
<rect x="94.703" y="50.9865" width="22.5837" height="1.47555" fill="#EAEEF7"/>
<rect x="94.703" y="53.5688" width="22.5837" height="1.47555" fill="#EAEEF7"/>
<rect x="3.5" y="20" width="27.4547" height="40.9465" rx="4" fill="white"/>
<rect x="3.75" y="20.25" width="26.9547" height="40.4465" rx="3.75" stroke="black" stroke-opacity="0.3" stroke-width="0.5"/>
<rect x="3.5" y="20" width="27.4547" height="40.9465" rx="1" fill="white"/>
<rect x="3.75" y="20.25" width="26.9547" height="40.4465" rx="0.75" stroke="black" stroke-opacity="0.3" stroke-width="0.5"/>
<path d="M14.0477 25.5527L11.4954 26.2452L9.50137 30.9194L11.4954 32.3043V42.1719H22.6619L22.5024 32.3043L24.7357 30.9194L22.5024 26.2452L19.631 25.5527M14.0477 25.5527C14.4997 26.0432 15.7546 27.0242 17.1584 27.0242C18.5622 27.0242 19.3917 26.0432 19.631 25.5527M14.0477 25.5527H19.631" stroke="black" stroke-opacity="0.5"/>
<rect x="6.15773" y="48.4044" width="22.5837" height="1.47555" fill="#EAEEF7"/>
<rect x="6.15773" y="50.9865" width="22.5837" height="1.47555" fill="#EAEEF7"/>
<rect x="6.15773" y="53.5688" width="22.5837" height="1.47555" fill="#EAEEF7"/>
<rect x="33.0453" y="20" width="27.4547" height="40.9465" rx="1" fill="white"/>
<rect x="33.2953" y="20.25" width="26.9547" height="40.4465" rx="0.75" stroke="black" stroke-opacity="0.3" stroke-width="0.5"/>
<path d="M43.593 25.5527L41.0407 26.2452L39.0466 30.9194L41.0407 32.3043V42.1719H52.2071L52.0476 32.3043L54.2809 30.9194L52.0476 26.2452L49.1762 25.5527M43.593 25.5527C44.045 26.0432 45.2999 27.0242 46.7037 27.0242C48.1075 27.0242 48.937 26.0432 49.1762 25.5527M43.593 25.5527H49.1762" stroke="black" stroke-opacity="0.5"/>
<rect x="35.703" y="48.4044" width="22.5837" height="1.47555" fill="#EAEEF7"/>
<rect x="35.703" y="50.9865" width="22.5837" height="1.47555" fill="#EAEEF7"/>
<rect x="35.703" y="53.5688" width="22.5837" height="1.47555" fill="#EAEEF7"/>
<rect x="62.5" y="20" width="27.4547" height="40.9465" rx="4" fill="white"/>
<rect x="62.75" y="20.25" width="26.9547" height="40.4465" rx="3.75" stroke="black" stroke-opacity="0.3" stroke-width="0.5"/>
<rect x="62.5" y="20" width="27.4547" height="40.9465" rx="1" fill="white"/>
<rect x="62.75" y="20.25" width="26.9547" height="40.4465" rx="0.75" stroke="black" stroke-opacity="0.3" stroke-width="0.5"/>
<path d="M73.0477 25.5527L70.4954 26.2452L68.5014 30.9194L70.4954 32.3043V42.1719H81.6619L81.5024 32.3043L83.7357 30.9194L81.5024 26.2452L78.631 25.5527M73.0477 25.5527C73.4997 26.0432 74.7546 27.0242 76.1584 27.0242C77.5622 27.0242 78.3917 26.0432 78.631 25.5527M73.0477 25.5527H78.631" stroke="black" stroke-opacity="0.5"/>
<rect x="65.1577" y="48.4044" width="22.5837" height="1.47555" fill="#EAEEF7"/>
<rect x="65.1577" y="50.9865" width="22.5837" height="1.47555" fill="#EAEEF7"/>
<rect x="65.1577" y="53.5688" width="22.5837" height="1.47555" fill="#EAEEF7"/>
<rect x="92.0453" y="20" width="27.4547" height="40.9465" rx="1" fill="white"/>
<rect x="92.2953" y="20.25" width="26.9547" height="40.4465" rx="0.75" stroke="black" stroke-opacity="0.3" stroke-width="0.5"/>
<path d="M102.593 25.5527L100.041 26.2452L98.0466 30.9194L100.041 32.3043V42.1719H111.207L111.048 32.3043L113.281 30.9194L111.048 26.2452L108.176 25.5527M102.593 25.5527C103.045 26.0432 104.3 27.0242 105.704 27.0242C107.107 27.0242 107.937 26.0432 108.176 25.5527M102.593 25.5527H108.176" stroke="black" stroke-opacity="0.5"/>
<rect x="94.703" y="48.4044" width="22.5837" height="1.47555" fill="#EAEEF7"/>
<rect x="94.703" y="50.9865" width="22.5837" height="1.47555" fill="#EAEEF7"/>
<rect x="94.703" y="53.5688" width="22.5837" height="1.47555" fill="#EAEEF7"/>
<rect x="3.5" y="64.9465" width="27.4547" height="40.9465" rx="4" fill="white"/>
<rect x="3.75" y="65.1965" width="26.9547" height="40.4465" rx="3.75" stroke="black" stroke-opacity="0.3" stroke-width="0.5"/>
<rect x="3.5" y="64.9465" width="27.4547" height="40.9465" rx="1" fill="white"/>
<rect x="3.75" y="65.1965" width="26.9547" height="40.4465" rx="0.75" stroke="black" stroke-opacity="0.3" stroke-width="0.5"/>
<path d="M14.0477 70.4993L11.4954 71.1917L9.50137 75.8659L11.4954 77.2508V87.1185H22.6619L22.5024 77.2508L24.7357 75.8659L22.5024 71.1917L19.631 70.4993M14.0477 70.4993C14.4997 70.9898 15.7546 71.9708 17.1584 71.9708C18.5622 71.9708 19.3917 70.9898 19.631 70.4993M14.0477 70.4993H19.631" stroke="black" stroke-opacity="0.5"/>
<rect x="6.15773" y="93.351" width="22.5837" height="1.47555" fill="#EAEEF7"/>
<rect x="6.15773" y="95.933" width="22.5837" height="1.47555" fill="#EAEEF7"/>
<rect x="6.15773" y="98.5154" width="22.5837" height="1.47555" fill="#EAEEF7"/>
<rect x="33.0453" y="64.9465" width="27.4547" height="40.9465" rx="1" fill="white"/>
<rect x="33.2953" y="65.1965" width="26.9547" height="40.4465" rx="0.75" stroke="black" stroke-opacity="0.3" stroke-width="0.5"/>
<path d="M43.593 70.4993L41.0407 71.1917L39.0466 75.8659L41.0407 77.2508V87.1185H52.2071L52.0476 77.2508L54.2809 75.8659L52.0476 71.1917L49.1762 70.4993M43.593 70.4993C44.045 70.9898 45.2999 71.9708 46.7037 71.9708C48.1075 71.9708 48.937 70.9898 49.1762 70.4993M43.593 70.4993H49.1762" stroke="black" stroke-opacity="0.5"/>
<rect x="35.703" y="93.351" width="22.5837" height="1.47555" fill="#EAEEF7"/>
<rect x="35.703" y="95.933" width="22.5837" height="1.47555" fill="#EAEEF7"/>
<rect x="35.703" y="98.5154" width="22.5837" height="1.47555" fill="#EAEEF7"/>
<rect x="62.5" y="64.9465" width="27.4547" height="40.9465" rx="4" fill="white"/>
<rect x="62.75" y="65.1965" width="26.9547" height="40.4465" rx="3.75" stroke="black" stroke-opacity="0.3" stroke-width="0.5"/>
<rect x="62.5" y="64.9465" width="27.4547" height="40.9465" rx="1" fill="white"/>
<rect x="62.75" y="65.1965" width="26.9547" height="40.4465" rx="0.75" stroke="black" stroke-opacity="0.3" stroke-width="0.5"/>
<path d="M73.0477 70.4993L70.4954 71.1917L68.5014 75.8659L70.4954 77.2508V87.1185H81.6619L81.5024 77.2508L83.7357 75.8659L81.5024 71.1917L78.631 70.4993M73.0477 70.4993C73.4997 70.9898 74.7546 71.9708 76.1584 71.9708C77.5622 71.9708 78.3917 70.9898 78.631 70.4993M73.0477 70.4993H78.631" stroke="black" stroke-opacity="0.5"/>
<rect x="65.1577" y="93.351" width="22.5837" height="1.47555" fill="#EAEEF7"/>
<rect x="65.1577" y="95.933" width="22.5837" height="1.47555" fill="#EAEEF7"/>
<rect x="65.1577" y="98.5154" width="22.5837" height="1.47555" fill="#EAEEF7"/>
<rect x="92.0453" y="64.9465" width="27.4547" height="40.9465" rx="1" fill="white"/>
<rect x="92.2953" y="65.1965" width="26.9547" height="40.4465" rx="0.75" stroke="black" stroke-opacity="0.3" stroke-width="0.5"/>
<path d="M102.593 70.4993L100.041 71.1917L98.0466 75.8659L100.041 77.2508V87.1185H111.207L111.048 77.2508L113.281 75.8659L111.048 71.1917L108.176 70.4993M102.593 70.4993C103.045 70.9898 104.3 71.9708 105.704 71.9708C107.107 71.9708 107.937 70.9898 108.176 70.4993M102.593 70.4993H108.176" stroke="black" stroke-opacity="0.5"/>
<rect x="94.703" y="93.351" width="22.5837" height="1.47555" fill="#EAEEF7"/>
<rect x="94.703" y="95.933" width="22.5837" height="1.47555" fill="#EAEEF7"/>
<rect x="94.703" y="98.5154" width="22.5837" height="1.47555" fill="#EAEEF7"/>
<rect x="3.5" y="64.9465" width="27.4547" height="40.9465" rx="4" fill="white"/>
<rect x="3.75" y="65.1965" width="26.9547" height="40.4465" rx="3.75" stroke="black" stroke-opacity="0.3" stroke-width="0.5"/>
<rect x="3.5" y="64.9465" width="27.4547" height="40.9465" rx="1" fill="white"/>
<rect x="3.75" y="65.1965" width="26.9547" height="40.4465" rx="0.75" stroke="black" stroke-opacity="0.3" stroke-width="0.5"/>
<path d="M14.0477 70.4993L11.4954 71.1917L9.50137 75.8659L11.4954 77.2508V87.1185H22.6619L22.5024 77.2508L24.7357 75.8659L22.5024 71.1917L19.631 70.4993M14.0477 70.4993C14.4997 70.9898 15.7546 71.9708 17.1584 71.9708C18.5622 71.9708 19.3917 70.9898 19.631 70.4993M14.0477 70.4993H19.631" stroke="black" stroke-opacity="0.5"/>
<rect x="6.15773" y="93.351" width="22.5837" height="1.47555" fill="#EAEEF7"/>
<rect x="6.15773" y="95.933" width="22.5837" height="1.47555" fill="#EAEEF7"/>
<rect x="6.15773" y="98.5154" width="22.5837" height="1.47555" fill="#EAEEF7"/>
<rect x="33.0453" y="64.9465" width="27.4547" height="40.9465" rx="1" fill="white"/>
<rect x="33.2953" y="65.1965" width="26.9547" height="40.4465" rx="0.75" stroke="black" stroke-opacity="0.3" stroke-width="0.5"/>
<path d="M43.593 70.4993L41.0407 71.1917L39.0466 75.8659L41.0407 77.2508V87.1185H52.2071L52.0476 77.2508L54.2809 75.8659L52.0476 71.1917L49.1762 70.4993M43.593 70.4993C44.045 70.9898 45.2999 71.9708 46.7037 71.9708C48.1075 71.9708 48.937 70.9898 49.1762 70.4993M43.593 70.4993H49.1762" stroke="black" stroke-opacity="0.5"/>
<rect x="35.703" y="93.351" width="22.5837" height="1.47555" fill="#EAEEF7"/>
<rect x="35.703" y="95.933" width="22.5837" height="1.47555" fill="#EAEEF7"/>
<rect x="35.703" y="98.5154" width="22.5837" height="1.47555" fill="#EAEEF7"/>
<rect x="62.5" y="64.9465" width="27.4547" height="40.9465" rx="4" fill="white"/>
<rect x="62.75" y="65.1965" width="26.9547" height="40.4465" rx="3.75" stroke="black" stroke-opacity="0.3" stroke-width="0.5"/>
<rect x="62.5" y="64.9465" width="27.4547" height="40.9465" rx="1" fill="white"/>
<rect x="62.75" y="65.1965" width="26.9547" height="40.4465" rx="0.75" stroke="black" stroke-opacity="0.3" stroke-width="0.5"/>
<path d="M73.0477 70.4993L70.4954 71.1917L68.5014 75.8659L70.4954 77.2508V87.1185H81.6619L81.5024 77.2508L83.7357 75.8659L81.5024 71.1917L78.631 70.4993M73.0477 70.4993C73.4997 70.9898 74.7546 71.9708 76.1584 71.9708C77.5622 71.9708 78.3917 70.9898 78.631 70.4993M73.0477 70.4993H78.631" stroke="black" stroke-opacity="0.5"/>
<rect x="65.1577" y="93.351" width="22.5837" height="1.47555" fill="#EAEEF7"/>
<rect x="65.1577" y="95.933" width="22.5837" height="1.47555" fill="#EAEEF7"/>
<rect x="65.1577" y="98.5154" width="22.5837" height="1.47555" fill="#EAEEF7"/>
<rect x="92.0453" y="64.9465" width="27.4547" height="40.9465" rx="1" fill="white"/>
<rect x="92.2953" y="65.1965" width="26.9547" height="40.4465" rx="0.75" stroke="black" stroke-opacity="0.3" stroke-width="0.5"/>
<path d="M102.593 70.4993L100.041 71.1917L98.0466 75.8659L100.041 77.2508V87.1185H111.207L111.048 77.2508L113.281 75.8659L111.048 71.1917L108.176 70.4993M102.593 70.4993C103.045 70.9898 104.3 71.9708 105.704 71.9708C107.107 71.9708 107.937 70.9898 108.176 70.4993M102.593 70.4993H108.176" stroke="black" stroke-opacity="0.5"/>
<rect x="94.703" y="93.351" width="22.5837" height="1.47555" fill="#EAEEF7"/>
<rect x="94.703" y="95.933" width="22.5837" height="1.47555" fill="#EAEEF7"/>
<rect x="94.703" y="98.5154" width="22.5837" height="1.47555" fill="#EAEEF7"/>
<rect x="3.5" y="64.9465" width="27.4547" height="40.9465" rx="4" fill="white"/>
<rect x="3.75" y="65.1965" width="26.9547" height="40.4465" rx="3.75" stroke="black" stroke-opacity="0.3" stroke-width="0.5"/>
<rect x="3.5" y="64.9465" width="27.4547" height="40.9465" rx="1" fill="white"/>
<rect x="3.75" y="65.1965" width="26.9547" height="40.4465" rx="0.75" stroke="black" stroke-opacity="0.3" stroke-width="0.5"/>
<path d="M14.0477 70.4993L11.4954 71.1917L9.50137 75.8659L11.4954 77.2508V87.1185H22.6619L22.5024 77.2508L24.7357 75.8659L22.5024 71.1917L19.631 70.4993M14.0477 70.4993C14.4997 70.9898 15.7546 71.9708 17.1584 71.9708C18.5622 71.9708 19.3917 70.9898 19.631 70.4993M14.0477 70.4993H19.631" stroke="black" stroke-opacity="0.5"/>
<rect x="6.15773" y="93.351" width="22.5837" height="1.47555" fill="#EAEEF7"/>
<rect x="6.15773" y="95.933" width="22.5837" height="1.47555" fill="#EAEEF7"/>
<rect x="6.15773" y="98.5154" width="22.5837" height="1.47555" fill="#EAEEF7"/>
<rect x="33.0453" y="64.9465" width="27.4547" height="40.9465" rx="1" fill="white"/>
<rect x="33.2953" y="65.1965" width="26.9547" height="40.4465" rx="0.75" stroke="black" stroke-opacity="0.3" stroke-width="0.5"/>
<path d="M43.593 70.4993L41.0407 71.1917L39.0466 75.8659L41.0407 77.2508V87.1185H52.2071L52.0476 77.2508L54.2809 75.8659L52.0476 71.1917L49.1762 70.4993M43.593 70.4993C44.045 70.9898 45.2999 71.9708 46.7037 71.9708C48.1075 71.9708 48.937 70.9898 49.1762 70.4993M43.593 70.4993H49.1762" stroke="black" stroke-opacity="0.5"/>
<rect x="35.703" y="93.351" width="22.5837" height="1.47555" fill="#EAEEF7"/>
<rect x="35.703" y="95.933" width="22.5837" height="1.47555" fill="#EAEEF7"/>
<rect x="35.703" y="98.5154" width="22.5837" height="1.47555" fill="#EAEEF7"/>
<rect x="62.5" y="64.9465" width="27.4547" height="40.9465" rx="4" fill="white"/>
<rect x="62.75" y="65.1965" width="26.9547" height="40.4465" rx="3.75" stroke="black" stroke-opacity="0.3" stroke-width="0.5"/>
<rect x="62.5" y="64.9465" width="27.4547" height="40.9465" rx="1" fill="white"/>
<rect x="62.75" y="65.1965" width="26.9547" height="40.4465" rx="0.75" stroke="black" stroke-opacity="0.3" stroke-width="0.5"/>
<path d="M73.0477 70.4993L70.4954 71.1917L68.5014 75.8659L70.4954 77.2508V87.1185H81.6619L81.5024 77.2508L83.7357 75.8659L81.5024 71.1917L78.631 70.4993M73.0477 70.4993C73.4997 70.9898 74.7546 71.9708 76.1584 71.9708C77.5622 71.9708 78.3917 70.9898 78.631 70.4993M73.0477 70.4993H78.631" stroke="black" stroke-opacity="0.5"/>
<rect x="65.1577" y="93.351" width="22.5837" height="1.47555" fill="#EAEEF7"/>
<rect x="65.1577" y="95.933" width="22.5837" height="1.47555" fill="#EAEEF7"/>
<rect x="65.1577" y="98.5154" width="22.5837" height="1.47555" fill="#EAEEF7"/>
<rect x="92.0453" y="64.9465" width="27.4547" height="40.9465" rx="1" fill="white"/>
<rect x="92.2953" y="65.1965" width="26.9547" height="40.4465" rx="0.75" stroke="black" stroke-opacity="0.3" stroke-width="0.5"/>
<path d="M102.593 70.4993L100.041 71.1917L98.0466 75.8659L100.041 77.2508V87.1185H111.207L111.048 77.2508L113.281 75.8659L111.048 71.1917L108.176 70.4993M102.593 70.4993C103.045 70.9898 104.3 71.9708 105.704 71.9708C107.107 71.9708 107.937 70.9898 108.176 70.4993M102.593 70.4993H108.176" stroke="black" stroke-opacity="0.5"/>
<rect x="94.703" y="93.351" width="22.5837" height="1.47555" fill="#EAEEF7"/>
<rect x="94.703" y="95.933" width="22.5837" height="1.47555" fill="#EAEEF7"/>
<rect x="94.703" y="98.5154" width="22.5837" height="1.47555" fill="#EAEEF7"/>
<rect x="0.5" y="0.5" width="122" height="112" stroke="#D4D4D4"/>
</svg>
