<svg width="123" height="113" viewBox="0 0 123 113" fill="none" xmlns="http://www.w3.org/2000/svg">
<g opacity="0.4">
<g clip-path="url(#clip0_58269_202696)">
<path d="M10.1125 13V7.939H11.852C12.4937 7.939 12.9732 8.05333 13.2905 8.282C13.6102 8.50833 13.77 8.835 13.77 9.262C13.77 9.521 13.7035 9.745 13.5705 9.934C13.4375 10.123 13.203 10.2828 12.867 10.4135C13.0723 10.4625 13.2415 10.5302 13.3745 10.6165C13.5098 10.7005 13.6148 10.7973 13.6895 10.907C13.7642 11.0143 13.8167 11.1298 13.847 11.2535C13.8773 11.3772 13.8925 11.5043 13.8925 11.635C13.8925 12.097 13.7315 12.44 13.4095 12.664C13.0898 12.888 12.594 13 11.922 13H10.1125ZM10.963 12.321H11.9325C12.2918 12.321 12.5637 12.2568 12.748 12.1285C12.9347 11.9978 13.028 11.81 13.028 11.565C13.028 11.3877 12.9825 11.2418 12.8915 11.1275C12.8005 11.0108 12.6768 10.9245 12.5205 10.8685C12.3642 10.8125 12.1892 10.7845 11.9955 10.7845H10.963V12.321ZM10.963 10.095H11.9955C12.1145 10.095 12.23 10.0822 12.342 10.0565C12.454 10.0308 12.5555 9.99 12.6465 9.934C12.7375 9.878 12.8098 9.80333 12.8635 9.71C12.9195 9.61667 12.9475 9.5035 12.9475 9.3705C12.9475 9.11617 12.8507 8.92717 12.657 8.8035C12.4657 8.6775 12.2195 8.6145 11.9185 8.6145H10.963V10.095ZM14.9771 13V9.381H15.7926V10.165C15.851 9.98533 15.9338 9.8325 16.0411 9.7065C16.1508 9.57817 16.2791 9.48017 16.4261 9.4125C16.5731 9.34483 16.733 9.311 16.9056 9.311C16.9476 9.311 16.9885 9.31333 17.0281 9.318C17.0678 9.32267 17.097 9.33083 17.1156 9.3425V10.158C17.09 10.1463 17.0561 10.1382 17.0141 10.1335C16.9745 10.1288 16.9395 10.1265 16.9091 10.1265C16.7341 10.1125 16.579 10.1195 16.4436 10.1475C16.3106 10.1755 16.1975 10.2233 16.1041 10.291C16.0131 10.3563 15.9443 10.4403 15.8976 10.543C15.851 10.6433 15.8276 10.7612 15.8276 10.8965V13H14.9771ZM18.9802 13.07C18.7492 13.07 18.5415 13.028 18.3572 12.944C18.1752 12.8577 18.0317 12.7352 17.9267 12.5765C17.824 12.4155 17.7727 12.2207 17.7727 11.992C17.7727 11.593 17.9162 11.292 18.2032 11.089C18.4925 10.886 18.9533 10.7798 19.5857 10.7705L20.1247 10.7565V10.5115C20.1247 10.3202 20.0675 10.1708 19.9532 10.0635C19.8412 9.95383 19.6662 9.90017 19.4282 9.9025C19.2532 9.90483 19.0922 9.94683 18.9452 10.0285C18.8005 10.1078 18.7048 10.242 18.6582 10.431H17.9337C17.9477 10.1837 18.0188 9.97717 18.1472 9.8115C18.2778 9.6435 18.4563 9.51867 18.6827 9.437C18.909 9.353 19.1703 9.311 19.4667 9.311C19.812 9.311 20.0932 9.3565 20.3102 9.4475C20.5272 9.5385 20.687 9.67033 20.7897 9.843C20.8923 10.0133 20.9437 10.2198 20.9437 10.4625V13H20.2262L20.1597 12.349C20.029 12.622 19.8633 12.811 19.6627 12.916C19.4643 13.0187 19.2368 13.07 18.9802 13.07ZM19.2567 12.4925C19.3617 12.4925 19.4655 12.4738 19.5682 12.4365C19.6708 12.3968 19.7642 12.3443 19.8482 12.279C19.9322 12.2113 19.9987 12.1367 20.0477 12.055C20.099 11.9733 20.1247 11.8882 20.1247 11.7995V11.229L19.6802 11.236C19.4608 11.2383 19.2695 11.2617 19.1062 11.306C18.9428 11.3503 18.8145 11.4215 18.7212 11.5195C18.6302 11.6152 18.5847 11.7435 18.5847 11.9045C18.5847 12.0888 18.6488 12.2335 18.7772 12.3385C18.9055 12.4412 19.0653 12.4925 19.2567 12.4925ZM22.19 13V9.381H23.023V9.899C23.079 9.80567 23.1549 9.71583 23.2505 9.6295C23.3485 9.54317 23.4687 9.47317 23.611 9.4195C23.7534 9.36583 23.9202 9.339 24.1115 9.339C24.3355 9.339 24.5432 9.38333 24.7345 9.472C24.9282 9.56067 25.0834 9.6995 25.2 9.8885C25.319 10.0775 25.3785 10.3213 25.3785 10.62V13H24.5245V10.7215C24.5245 10.4835 24.4592 10.3073 24.3285 10.193C24.1979 10.0763 24.0334 10.018 23.835 10.018C23.6997 10.018 23.5714 10.0413 23.45 10.088C23.3287 10.1323 23.2295 10.2012 23.1525 10.2945C23.0779 10.3855 23.0405 10.4998 23.0405 10.6375V13H22.19ZM27.8681 13.07C27.3898 13.07 27.0141 12.9055 26.7411 12.5765C26.4681 12.2475 26.3316 11.7797 26.3316 11.173C26.3316 10.795 26.3864 10.4672 26.4961 10.1895C26.6081 9.9095 26.7714 9.69367 26.9861 9.542C27.2031 9.388 27.4714 9.311 27.7911 9.311C27.9404 9.311 28.0758 9.32967 28.1971 9.367C28.3208 9.402 28.4304 9.44867 28.5261 9.507C28.6218 9.56533 28.7023 9.6295 28.7676 9.6995C28.8353 9.7695 28.8878 9.8395 28.9251 9.9095V7.799H29.7791V13H29.1491L29.0546 12.258C29.0266 12.3443 28.9846 12.4353 28.9286 12.531C28.8749 12.6243 28.8014 12.7118 28.7081 12.7935C28.6171 12.8752 28.5028 12.9417 28.3651 12.993C28.2274 13.0443 28.0618 13.07 27.8681 13.07ZM28.0431 12.4435C28.3488 12.4435 28.5716 12.3443 28.7116 12.146C28.8539 11.9453 28.9251 11.614 28.9251 11.152C28.9228 10.8883 28.8901 10.6667 28.8271 10.487C28.7664 10.3073 28.6719 10.172 28.5436 10.081C28.4176 9.99 28.2543 9.9445 28.0536 9.9445C27.7969 9.9445 27.5858 10.039 27.4201 10.228C27.2544 10.417 27.1716 10.725 27.1716 11.152C27.1716 11.5767 27.2474 11.8987 27.3991 12.118C27.5508 12.335 27.7654 12.4435 28.0431 12.4435ZM32.3572 13.07C32.1052 13.07 31.866 13.0303 31.6397 12.951C31.4157 12.8693 31.2267 12.7422 31.0727 12.5695C30.921 12.3968 30.8254 12.174 30.7857 11.901H31.5347C31.5674 12.034 31.6245 12.1425 31.7062 12.2265C31.7902 12.3105 31.8894 12.3723 32.0037 12.412C32.118 12.4493 32.2347 12.468 32.3537 12.468C32.5707 12.468 32.7457 12.4307 32.8787 12.356C33.014 12.2813 33.0817 12.1658 33.0817 12.0095C33.0817 11.8952 33.0444 11.8042 32.9697 11.7365C32.895 11.6688 32.776 11.6175 32.6127 11.5825L31.9232 11.425C31.6175 11.3573 31.3714 11.2453 31.1847 11.089C31.0004 10.9327 30.907 10.7122 30.9047 10.4275C30.9024 10.2128 30.956 10.0215 31.0657 9.8535C31.1754 9.6855 31.3387 9.55367 31.5557 9.458C31.7727 9.36 32.041 9.311 32.3607 9.311C32.783 9.311 33.1214 9.4055 33.3757 9.5945C33.63 9.78117 33.7607 10.0483 33.7677 10.396H33.0432C33.0175 10.2397 32.944 10.1183 32.8227 10.032C32.7014 9.94333 32.5439 9.899 32.3502 9.899C32.1495 9.899 31.985 9.9375 31.8567 10.0145C31.7284 10.0915 31.6642 10.2093 31.6642 10.368C31.6642 10.4777 31.7132 10.564 31.8112 10.627C31.9092 10.69 32.0562 10.7437 32.2522 10.788L32.9032 10.9455C33.0899 10.9922 33.2427 11.0552 33.3617 11.1345C33.4807 11.2138 33.574 11.3013 33.6417 11.397C33.7094 11.4903 33.756 11.5872 33.7817 11.6875C33.8097 11.7855 33.8237 11.8765 33.8237 11.9605C33.8237 12.1938 33.763 12.3933 33.6417 12.559C33.5227 12.7223 33.3535 12.8483 33.1342 12.937C32.9149 13.0257 32.6559 13.07 32.3572 13.07Z" fill="#121212"/>
<path d="M9.738 29L11.558 23.939H12.4785L14.295 29H13.441L12.9895 27.7295H11.0575L10.5955 29H9.738ZM11.2535 26.9735H12.7795L12.02 24.7685L11.2535 26.9735Z" fill="#121212"/>
<path d="M9.83334 40.333L12.5084 37.658C12.964 37.2024 13.7027 37.2024 14.1583 37.658L16.8333 40.333M15.6667 39.1663L16.5917 38.2413C17.0473 37.7857 17.786 37.7857 18.2416 38.2413L19.1667 39.1663M15.6667 35.6663H15.6725M11 42.6663H18C18.6443 42.6663 19.1667 42.144 19.1667 41.4997V34.4997C19.1667 33.8553 18.6443 33.333 18 33.333H11C10.3557 33.333 9.83334 33.8553 9.83334 34.4997V41.4997C9.83334 42.144 10.3557 42.6663 11 42.6663Z" stroke="#121212" stroke-linecap="round" stroke-linejoin="round"/>
<path d="M25.9375 39.5V35.885H27.18C27.6383 35.885 27.9808 35.9667 28.2075 36.13C28.4358 36.2917 28.55 36.525 28.55 36.83C28.55 37.015 28.5025 37.175 28.4075 37.31C28.3125 37.445 28.145 37.5592 27.905 37.6525C28.0517 37.6875 28.1725 37.7358 28.2675 37.7975C28.3642 37.8575 28.4392 37.9267 28.4925 38.005C28.5458 38.0817 28.5833 38.1642 28.605 38.2525C28.6267 38.3408 28.6375 38.4317 28.6375 38.525C28.6375 38.855 28.5225 39.1 28.2925 39.26C28.0642 39.42 27.71 39.5 27.23 39.5H25.9375ZM26.545 39.015H27.2375C27.4942 39.015 27.6883 38.9692 27.82 38.8775C27.9533 38.7842 28.02 38.65 28.02 38.475C28.02 38.3483 27.9875 38.2442 27.9225 38.1625C27.8575 38.0792 27.7692 38.0175 27.6575 37.9775C27.5458 37.9375 27.4208 37.9175 27.2825 37.9175H26.545V39.015ZM26.545 37.425H27.2825C27.3675 37.425 27.45 37.4158 27.53 37.3975C27.61 37.3792 27.6825 37.35 27.7475 37.31C27.8125 37.27 27.8642 37.2167 27.9025 37.15C27.9425 37.0833 27.9625 37.0025 27.9625 36.9075C27.9625 36.7258 27.8933 36.5908 27.755 36.5025C27.6183 36.4125 27.4425 36.3675 27.2275 36.3675H26.545V37.425ZM29.4837 39.5V36.915H30.0662V37.475C30.1078 37.3467 30.167 37.2375 30.2437 37.1475C30.322 37.0558 30.4137 36.9858 30.5187 36.9375C30.6237 36.8892 30.7378 36.865 30.8612 36.865C30.8912 36.865 30.9203 36.8667 30.9487 36.87C30.977 36.8733 30.9978 36.8792 31.0112 36.8875V37.47C30.9928 37.4617 30.9687 37.4558 30.9387 37.4525C30.9103 37.4492 30.8853 37.4475 30.8637 37.4475C30.7387 37.4375 30.6278 37.4425 30.5312 37.4625C30.4362 37.4825 30.3553 37.5167 30.2887 37.565C30.2237 37.6117 30.1745 37.6717 30.1412 37.745C30.1078 37.8167 30.0912 37.9008 30.0912 37.9975V39.5H29.4837ZM32.4144 39.55C32.2494 39.55 32.1011 39.52 31.9694 39.46C31.8394 39.3983 31.7369 39.3108 31.6619 39.1975C31.5886 39.0825 31.5519 38.9433 31.5519 38.78C31.5519 38.495 31.6544 38.28 31.8594 38.135C32.0661 37.99 32.3952 37.9142 32.8469 37.9075L33.2319 37.8975V37.7225C33.2319 37.5858 33.1911 37.4792 33.1094 37.4025C33.0294 37.3242 32.9044 37.2858 32.7344 37.2875C32.6094 37.2892 32.4944 37.3192 32.3894 37.3775C32.2861 37.4342 32.2177 37.53 32.1844 37.665H31.6669C31.6769 37.4883 31.7277 37.3408 31.8194 37.2225C31.9127 37.1025 32.0402 37.0133 32.2019 36.955C32.3636 36.895 32.5502 36.865 32.7619 36.865C33.0086 36.865 33.2094 36.8975 33.3644 36.9625C33.5194 37.0275 33.6336 37.1217 33.7069 37.245C33.7802 37.3667 33.8169 37.5142 33.8169 37.6875V39.5H33.3044L33.2569 39.035C33.1636 39.23 33.0452 39.365 32.9019 39.44C32.7602 39.5133 32.5977 39.55 32.4144 39.55ZM32.6119 39.1375C32.6869 39.1375 32.7611 39.1242 32.8344 39.0975C32.9077 39.0692 32.9744 39.0317 33.0344 38.985C33.0944 38.9367 33.1419 38.8833 33.1769 38.825C33.2136 38.7667 33.2319 38.7058 33.2319 38.6425V38.235L32.9144 38.24C32.7577 38.2417 32.6211 38.2583 32.5044 38.29C32.3877 38.3217 32.2961 38.3725 32.2294 38.4425C32.1644 38.5108 32.1319 38.6025 32.1319 38.7175C32.1319 38.8492 32.1777 38.9525 32.2694 39.0275C32.3611 39.1008 32.4752 39.1375 32.6119 39.1375ZM34.7786 39.5V36.915H35.3736V37.285C35.4136 37.2183 35.4678 37.1542 35.5361 37.0925C35.6061 37.0308 35.6919 36.9808 35.7936 36.9425C35.8953 36.9042 36.0144 36.885 36.1511 36.885C36.3111 36.885 36.4594 36.9167 36.5961 36.98C36.7344 37.0433 36.8453 37.1425 36.9286 37.2775C37.0136 37.4125 37.0561 37.5867 37.0561 37.8V39.5H36.4461V37.8725C36.4461 37.7025 36.3994 37.5767 36.3061 37.495C36.2128 37.4117 36.0953 37.37 35.9536 37.37C35.8569 37.37 35.7653 37.3867 35.6786 37.42C35.5919 37.4517 35.5211 37.5008 35.4661 37.5675C35.4128 37.6325 35.3861 37.7142 35.3861 37.8125V39.5H34.7786ZM38.9058 39.55C38.5641 39.55 38.2958 39.4325 38.1008 39.1975C37.9058 38.9625 37.8083 38.6283 37.8083 38.195C37.8083 37.925 37.8474 37.6908 37.9258 37.4925C38.0058 37.2925 38.1224 37.1383 38.2758 37.03C38.4308 36.92 38.6224 36.865 38.8508 36.865C38.9574 36.865 39.0541 36.8783 39.1408 36.905C39.2291 36.93 39.3074 36.9633 39.3758 37.005C39.4441 37.0467 39.5016 37.0925 39.5483 37.1425C39.5966 37.1925 39.6341 37.2425 39.6608 37.2925V35.785H40.2708V39.5H39.8208L39.7533 38.97C39.7333 39.0317 39.7033 39.0967 39.6633 39.165C39.6249 39.2317 39.5724 39.2942 39.5058 39.3525C39.4408 39.4108 39.3591 39.4583 39.2608 39.495C39.1624 39.5317 39.0441 39.55 38.9058 39.55ZM39.0308 39.1025C39.2491 39.1025 39.4083 39.0317 39.5083 38.89C39.6099 38.7467 39.6608 38.51 39.6608 38.18C39.6591 37.9917 39.6358 37.8333 39.5908 37.705C39.5474 37.5767 39.4799 37.48 39.3883 37.415C39.2983 37.35 39.1816 37.3175 39.0383 37.3175C38.8549 37.3175 38.7041 37.385 38.5858 37.52C38.4674 37.655 38.4083 37.875 38.4083 38.18C38.4083 38.4833 38.4624 38.7133 38.5708 38.87C38.6791 39.025 38.8324 39.1025 39.0308 39.1025ZM42.3897 39.5L43.6897 35.885H44.3472L45.6447 39.5H45.0347L44.7122 38.5925H43.3322L43.0022 39.5H42.3897ZM43.4722 38.0525H44.5622L44.0197 36.4775L43.4722 38.0525Z" fill="#121212"/>
<path d="M9.83334 54.333L12.5084 51.658C12.964 51.2024 13.7027 51.2024 14.1583 51.658L16.8333 54.333M15.6667 53.1663L16.5917 52.2413C17.0473 51.7857 17.786 51.7857 18.2416 52.2413L19.1667 53.1663M15.6667 49.6663H15.6725M11 56.6663H18C18.6443 56.6663 19.1667 56.144 19.1667 55.4997V48.4997C19.1667 47.8553 18.6443 47.333 18 47.333H11C10.3557 47.333 9.83334 47.8553 9.83334 48.4997V55.4997C9.83334 56.144 10.3557 56.6663 11 56.6663Z" stroke="#121212" stroke-linecap="round" stroke-linejoin="round"/>
<path d="M25.9375 53.5V49.885H27.18C27.6383 49.885 27.9808 49.9667 28.2075 50.13C28.4358 50.2917 28.55 50.525 28.55 50.83C28.55 51.015 28.5025 51.175 28.4075 51.31C28.3125 51.445 28.145 51.5592 27.905 51.6525C28.0517 51.6875 28.1725 51.7358 28.2675 51.7975C28.3642 51.8575 28.4392 51.9267 28.4925 52.005C28.5458 52.0817 28.5833 52.1642 28.605 52.2525C28.6267 52.3408 28.6375 52.4317 28.6375 52.525C28.6375 52.855 28.5225 53.1 28.2925 53.26C28.0642 53.42 27.71 53.5 27.23 53.5H25.9375ZM26.545 53.015H27.2375C27.4942 53.015 27.6883 52.9692 27.82 52.8775C27.9533 52.7842 28.02 52.65 28.02 52.475C28.02 52.3483 27.9875 52.2442 27.9225 52.1625C27.8575 52.0792 27.7692 52.0175 27.6575 51.9775C27.5458 51.9375 27.4208 51.9175 27.2825 51.9175H26.545V53.015ZM26.545 51.425H27.2825C27.3675 51.425 27.45 51.4158 27.53 51.3975C27.61 51.3792 27.6825 51.35 27.7475 51.31C27.8125 51.27 27.8642 51.2167 27.9025 51.15C27.9425 51.0833 27.9625 51.0025 27.9625 50.9075C27.9625 50.7258 27.8933 50.5908 27.755 50.5025C27.6183 50.4125 27.4425 50.3675 27.2275 50.3675H26.545V51.425ZM29.4837 53.5V50.915H30.0662V51.475C30.1078 51.3467 30.167 51.2375 30.2437 51.1475C30.322 51.0558 30.4137 50.9858 30.5187 50.9375C30.6237 50.8892 30.7378 50.865 30.8612 50.865C30.8912 50.865 30.9203 50.8667 30.9487 50.87C30.977 50.8733 30.9978 50.8792 31.0112 50.8875V51.47C30.9928 51.4617 30.9687 51.4558 30.9387 51.4525C30.9103 51.4492 30.8853 51.4475 30.8637 51.4475C30.7387 51.4375 30.6278 51.4425 30.5312 51.4625C30.4362 51.4825 30.3553 51.5167 30.2887 51.565C30.2237 51.6117 30.1745 51.6717 30.1412 51.745C30.1078 51.8167 30.0912 51.9008 30.0912 51.9975V53.5H29.4837ZM32.4144 53.55C32.2494 53.55 32.1011 53.52 31.9694 53.46C31.8394 53.3983 31.7369 53.3108 31.6619 53.1975C31.5886 53.0825 31.5519 52.9433 31.5519 52.78C31.5519 52.495 31.6544 52.28 31.8594 52.135C32.0661 51.99 32.3952 51.9142 32.8469 51.9075L33.2319 51.8975V51.7225C33.2319 51.5858 33.1911 51.4792 33.1094 51.4025C33.0294 51.3242 32.9044 51.2858 32.7344 51.2875C32.6094 51.2892 32.4944 51.3192 32.3894 51.3775C32.2861 51.4342 32.2177 51.53 32.1844 51.665H31.6669C31.6769 51.4883 31.7277 51.3408 31.8194 51.2225C31.9127 51.1025 32.0402 51.0133 32.2019 50.955C32.3636 50.895 32.5502 50.865 32.7619 50.865C33.0086 50.865 33.2094 50.8975 33.3644 50.9625C33.5194 51.0275 33.6336 51.1217 33.7069 51.245C33.7802 51.3667 33.8169 51.5142 33.8169 51.6875V53.5H33.3044L33.2569 53.035C33.1636 53.23 33.0452 53.365 32.9019 53.44C32.7602 53.5133 32.5977 53.55 32.4144 53.55ZM32.6119 53.1375C32.6869 53.1375 32.7611 53.1242 32.8344 53.0975C32.9077 53.0692 32.9744 53.0317 33.0344 52.985C33.0944 52.9367 33.1419 52.8833 33.1769 52.825C33.2136 52.7667 33.2319 52.7058 33.2319 52.6425V52.235L32.9144 52.24C32.7577 52.2417 32.6211 52.2583 32.5044 52.29C32.3877 52.3217 32.2961 52.3725 32.2294 52.4425C32.1644 52.5108 32.1319 52.6025 32.1319 52.7175C32.1319 52.8492 32.1777 52.9525 32.2694 53.0275C32.3611 53.1008 32.4752 53.1375 32.6119 53.1375ZM34.7786 53.5V50.915H35.3736V51.285C35.4136 51.2183 35.4678 51.1542 35.5361 51.0925C35.6061 51.0308 35.6919 50.9808 35.7936 50.9425C35.8953 50.9042 36.0144 50.885 36.1511 50.885C36.3111 50.885 36.4594 50.9167 36.5961 50.98C36.7344 51.0433 36.8453 51.1425 36.9286 51.2775C37.0136 51.4125 37.0561 51.5867 37.0561 51.8V53.5H36.4461V51.8725C36.4461 51.7025 36.3994 51.5767 36.3061 51.495C36.2128 51.4117 36.0953 51.37 35.9536 51.37C35.8569 51.37 35.7653 51.3867 35.6786 51.42C35.5919 51.4517 35.5211 51.5008 35.4661 51.5675C35.4128 51.6325 35.3861 51.7142 35.3861 51.8125V53.5H34.7786ZM38.9058 53.55C38.5641 53.55 38.2958 53.4325 38.1008 53.1975C37.9058 52.9625 37.8083 52.6283 37.8083 52.195C37.8083 51.925 37.8474 51.6908 37.9258 51.4925C38.0058 51.2925 38.1224 51.1383 38.2758 51.03C38.4308 50.92 38.6224 50.865 38.8508 50.865C38.9574 50.865 39.0541 50.8783 39.1408 50.905C39.2291 50.93 39.3074 50.9633 39.3758 51.005C39.4441 51.0467 39.5016 51.0925 39.5483 51.1425C39.5966 51.1925 39.6341 51.2425 39.6608 51.2925V49.785H40.2708V53.5H39.8208L39.7533 52.97C39.7333 53.0317 39.7033 53.0967 39.6633 53.165C39.6249 53.2317 39.5724 53.2942 39.5058 53.3525C39.4408 53.4108 39.3591 53.4583 39.2608 53.495C39.1624 53.5317 39.0441 53.55 38.9058 53.55ZM39.0308 53.1025C39.2491 53.1025 39.4083 53.0317 39.5083 52.89C39.6099 52.7467 39.6608 52.51 39.6608 52.18C39.6591 51.9917 39.6358 51.8333 39.5908 51.705C39.5474 51.5767 39.4799 51.48 39.3883 51.415C39.2983 51.35 39.1816 51.3175 39.0383 51.3175C38.8549 51.3175 38.7041 51.385 38.5858 51.52C38.4674 51.655 38.4083 51.875 38.4083 52.18C38.4083 52.4833 38.4624 52.7133 38.5708 52.87C38.6791 53.025 38.8324 53.1025 39.0308 53.1025ZM42.6572 53.5V49.885H43.8997C44.3581 49.885 44.7006 49.9667 44.9272 50.13C45.1556 50.2917 45.2697 50.525 45.2697 50.83C45.2697 51.015 45.2222 51.175 45.1272 51.31C45.0322 51.445 44.8647 51.5592 44.6247 51.6525C44.7714 51.6875 44.8922 51.7358 44.9872 51.7975C45.0839 51.8575 45.1589 51.9267 45.2122 52.005C45.2656 52.0817 45.3031 52.1642 45.3247 52.2525C45.3464 52.3408 45.3572 52.4317 45.3572 52.525C45.3572 52.855 45.2422 53.1 45.0122 53.26C44.7839 53.42 44.4297 53.5 43.9497 53.5H42.6572ZM43.2647 53.015H43.9572C44.2139 53.015 44.4081 52.9692 44.5397 52.8775C44.6731 52.7842 44.7397 52.65 44.7397 52.475C44.7397 52.3483 44.7072 52.2442 44.6422 52.1625C44.5772 52.0792 44.4889 52.0175 44.3772 51.9775C44.2656 51.9375 44.1406 51.9175 44.0022 51.9175H43.2647V53.015ZM43.2647 51.425H44.0022C44.0872 51.425 44.1697 51.4158 44.2497 51.3975C44.3297 51.3792 44.4022 51.35 44.4672 51.31C44.5322 51.27 44.5839 51.2167 44.6222 51.15C44.6622 51.0833 44.6822 51.0025 44.6822 50.9075C44.6822 50.7258 44.6131 50.5908 44.4747 50.5025C44.3381 50.4125 44.1622 50.3675 43.9472 50.3675H43.2647V51.425Z" fill="#121212"/>
<path d="M9.83334 68.333L12.5084 65.658C12.964 65.2024 13.7027 65.2024 14.1583 65.658L16.8333 68.333M15.6667 67.1663L16.5917 66.2413C17.0473 65.7857 17.786 65.7857 18.2416 66.2413L19.1667 67.1663M15.6667 63.6663H15.6725M11 70.6663H18C18.6443 70.6663 19.1667 70.144 19.1667 69.4997V62.4997C19.1667 61.8553 18.6443 61.333 18 61.333H11C10.3557 61.333 9.83334 61.8553 9.83334 62.4997V69.4997C9.83334 70.144 10.3557 70.6663 11 70.6663Z" stroke="#121212" stroke-linecap="round" stroke-linejoin="round"/>
<path d="M25.9375 67.5V63.885H27.18C27.6383 63.885 27.9808 63.9667 28.2075 64.13C28.4358 64.2917 28.55 64.525 28.55 64.83C28.55 65.015 28.5025 65.175 28.4075 65.31C28.3125 65.445 28.145 65.5592 27.905 65.6525C28.0517 65.6875 28.1725 65.7358 28.2675 65.7975C28.3642 65.8575 28.4392 65.9267 28.4925 66.005C28.5458 66.0817 28.5833 66.1642 28.605 66.2525C28.6267 66.3408 28.6375 66.4317 28.6375 66.525C28.6375 66.855 28.5225 67.1 28.2925 67.26C28.0642 67.42 27.71 67.5 27.23 67.5H25.9375ZM26.545 67.015H27.2375C27.4942 67.015 27.6883 66.9692 27.82 66.8775C27.9533 66.7842 28.02 66.65 28.02 66.475C28.02 66.3483 27.9875 66.2442 27.9225 66.1625C27.8575 66.0792 27.7692 66.0175 27.6575 65.9775C27.5458 65.9375 27.4208 65.9175 27.2825 65.9175H26.545V67.015ZM26.545 65.425H27.2825C27.3675 65.425 27.45 65.4158 27.53 65.3975C27.61 65.3792 27.6825 65.35 27.7475 65.31C27.8125 65.27 27.8642 65.2167 27.9025 65.15C27.9425 65.0833 27.9625 65.0025 27.9625 64.9075C27.9625 64.7258 27.8933 64.5908 27.755 64.5025C27.6183 64.4125 27.4425 64.3675 27.2275 64.3675H26.545V65.425ZM29.4837 67.5V64.915H30.0662V65.475C30.1078 65.3467 30.167 65.2375 30.2437 65.1475C30.322 65.0558 30.4137 64.9858 30.5187 64.9375C30.6237 64.8892 30.7378 64.865 30.8612 64.865C30.8912 64.865 30.9203 64.8667 30.9487 64.87C30.977 64.8733 30.9978 64.8792 31.0112 64.8875V65.47C30.9928 65.4617 30.9687 65.4558 30.9387 65.4525C30.9103 65.4492 30.8853 65.4475 30.8637 65.4475C30.7387 65.4375 30.6278 65.4425 30.5312 65.4625C30.4362 65.4825 30.3553 65.5167 30.2887 65.565C30.2237 65.6117 30.1745 65.6717 30.1412 65.745C30.1078 65.8167 30.0912 65.9008 30.0912 65.9975V67.5H29.4837ZM32.4144 67.55C32.2494 67.55 32.1011 67.52 31.9694 67.46C31.8394 67.3983 31.7369 67.3108 31.6619 67.1975C31.5886 67.0825 31.5519 66.9433 31.5519 66.78C31.5519 66.495 31.6544 66.28 31.8594 66.135C32.0661 65.99 32.3952 65.9142 32.8469 65.9075L33.2319 65.8975V65.7225C33.2319 65.5858 33.1911 65.4792 33.1094 65.4025C33.0294 65.3242 32.9044 65.2858 32.7344 65.2875C32.6094 65.2892 32.4944 65.3192 32.3894 65.3775C32.2861 65.4342 32.2177 65.53 32.1844 65.665H31.6669C31.6769 65.4883 31.7277 65.3408 31.8194 65.2225C31.9127 65.1025 32.0402 65.0133 32.2019 64.955C32.3636 64.895 32.5502 64.865 32.7619 64.865C33.0086 64.865 33.2094 64.8975 33.3644 64.9625C33.5194 65.0275 33.6336 65.1217 33.7069 65.245C33.7802 65.3667 33.8169 65.5142 33.8169 65.6875V67.5H33.3044L33.2569 67.035C33.1636 67.23 33.0452 67.365 32.9019 67.44C32.7602 67.5133 32.5977 67.55 32.4144 67.55ZM32.6119 67.1375C32.6869 67.1375 32.7611 67.1242 32.8344 67.0975C32.9077 67.0692 32.9744 67.0317 33.0344 66.985C33.0944 66.9367 33.1419 66.8833 33.1769 66.825C33.2136 66.7667 33.2319 66.7058 33.2319 66.6425V66.235L32.9144 66.24C32.7577 66.2417 32.6211 66.2583 32.5044 66.29C32.3877 66.3217 32.2961 66.3725 32.2294 66.4425C32.1644 66.5108 32.1319 66.6025 32.1319 66.7175C32.1319 66.8492 32.1777 66.9525 32.2694 67.0275C32.3611 67.1008 32.4752 67.1375 32.6119 67.1375ZM34.7786 67.5V64.915H35.3736V65.285C35.4136 65.2183 35.4678 65.1542 35.5361 65.0925C35.6061 65.0308 35.6919 64.9808 35.7936 64.9425C35.8953 64.9042 36.0144 64.885 36.1511 64.885C36.3111 64.885 36.4594 64.9167 36.5961 64.98C36.7344 65.0433 36.8453 65.1425 36.9286 65.2775C37.0136 65.4125 37.0561 65.5867 37.0561 65.8V67.5H36.4461V65.8725C36.4461 65.7025 36.3994 65.5767 36.3061 65.495C36.2128 65.4117 36.0953 65.37 35.9536 65.37C35.8569 65.37 35.7653 65.3867 35.6786 65.42C35.5919 65.4517 35.5211 65.5008 35.4661 65.5675C35.4128 65.6325 35.3861 65.7142 35.3861 65.8125V67.5H34.7786ZM38.9058 67.55C38.5641 67.55 38.2958 67.4325 38.1008 67.1975C37.9058 66.9625 37.8083 66.6283 37.8083 66.195C37.8083 65.925 37.8474 65.6908 37.9258 65.4925C38.0058 65.2925 38.1224 65.1383 38.2758 65.03C38.4308 64.92 38.6224 64.865 38.8508 64.865C38.9574 64.865 39.0541 64.8783 39.1408 64.905C39.2291 64.93 39.3074 64.9633 39.3758 65.005C39.4441 65.0467 39.5016 65.0925 39.5483 65.1425C39.5966 65.1925 39.6341 65.2425 39.6608 65.2925V63.785H40.2708V67.5H39.8208L39.7533 66.97C39.7333 67.0317 39.7033 67.0967 39.6633 67.165C39.6249 67.2317 39.5724 67.2942 39.5058 67.3525C39.4408 67.4108 39.3591 67.4583 39.2608 67.495C39.1624 67.5317 39.0441 67.55 38.9058 67.55ZM39.0308 67.1025C39.2491 67.1025 39.4083 67.0317 39.5083 66.89C39.6099 66.7467 39.6608 66.51 39.6608 66.18C39.6591 65.9917 39.6358 65.8333 39.5908 65.705C39.5474 65.5767 39.4799 65.48 39.3883 65.415C39.2983 65.35 39.1816 65.3175 39.0383 65.3175C38.8549 65.3175 38.7041 65.385 38.5858 65.52C38.4674 65.655 38.4083 65.875 38.4083 66.18C38.4083 66.4833 38.4624 66.7133 38.5708 66.87C38.6791 67.025 38.8324 67.1025 39.0308 67.1025ZM44.0647 63.835C44.3297 63.835 44.5647 63.8892 44.7697 63.9975C44.9747 64.1042 45.1397 64.2492 45.2647 64.4325C45.3914 64.6158 45.4664 64.82 45.4897 65.045H44.8472C44.8222 64.9117 44.7756 64.7925 44.7072 64.6875C44.6406 64.5825 44.5522 64.4992 44.4422 64.4375C44.3322 64.3758 44.2006 64.345 44.0472 64.345C43.8556 64.345 43.6922 64.3908 43.5572 64.4825C43.4239 64.5725 43.3214 64.7158 43.2497 64.9125C43.1797 65.1092 43.1447 65.3642 43.1447 65.6775C43.1447 66.1525 43.2231 66.4983 43.3797 66.715C43.5364 66.9317 43.7589 67.04 44.0472 67.04C44.2006 67.04 44.3322 67.0067 44.4422 66.94C44.5522 66.8717 44.6406 66.7817 44.7072 66.67C44.7756 66.5567 44.8222 66.4333 44.8472 66.3H45.4897C45.4697 66.4633 45.4281 66.62 45.3647 66.77C45.3031 66.92 45.2156 67.0542 45.1022 67.1725C44.9889 67.2892 44.8464 67.3817 44.6747 67.45C44.5047 67.5167 44.3014 67.55 44.0647 67.55C43.7331 67.55 43.4481 67.4742 43.2097 67.3225C42.9731 67.1692 42.7906 66.9525 42.6622 66.6725C42.5356 66.3908 42.4722 66.0567 42.4722 65.67C42.4722 65.285 42.5356 64.9558 42.6622 64.6825C42.7889 64.4092 42.9706 64.2 43.2072 64.055C43.4456 63.9083 43.7314 63.835 44.0647 63.835Z" fill="#121212"/>
<path d="M10.1125 81V75.939H11.852C12.4937 75.939 12.9732 76.0533 13.2905 76.282C13.6102 76.5083 13.77 76.835 13.77 77.262C13.77 77.521 13.7035 77.745 13.5705 77.934C13.4375 78.123 13.203 78.2828 12.867 78.4135C13.0723 78.4625 13.2415 78.5302 13.3745 78.6165C13.5098 78.7005 13.6148 78.7973 13.6895 78.907C13.7642 79.0143 13.8167 79.1298 13.847 79.2535C13.8773 79.3772 13.8925 79.5043 13.8925 79.635C13.8925 80.097 13.7315 80.44 13.4095 80.664C13.0898 80.888 12.594 81 11.922 81H10.1125ZM10.963 80.321H11.9325C12.2918 80.321 12.5637 80.2568 12.748 80.1285C12.9347 79.9978 13.028 79.81 13.028 79.565C13.028 79.3877 12.9825 79.2418 12.8915 79.1275C12.8005 79.0108 12.6768 78.9245 12.5205 78.8685C12.3642 78.8125 12.1892 78.7845 11.9955 78.7845H10.963V80.321ZM10.963 78.095H11.9955C12.1145 78.095 12.23 78.0822 12.342 78.0565C12.454 78.0308 12.5555 77.99 12.6465 77.934C12.7375 77.878 12.8098 77.8033 12.8635 77.71C12.9195 77.6167 12.9475 77.5035 12.9475 77.3705C12.9475 77.1162 12.8507 76.9272 12.657 76.8035C12.4657 76.6775 12.2195 76.6145 11.9185 76.6145H10.963V78.095Z" fill="#121212"/>
<path d="M9.83334 92.333L12.5084 89.658C12.964 89.2024 13.7027 89.2024 14.1583 89.658L16.8333 92.333M15.6667 91.1663L16.5917 90.2413C17.0473 89.7857 17.786 89.7857 18.2416 90.2413L19.1667 91.1663M15.6667 87.6663H15.6725M11 94.6663H18C18.6443 94.6663 19.1667 94.144 19.1667 93.4997V86.4997C19.1667 85.8553 18.6443 85.333 18 85.333H11C10.3557 85.333 9.83334 85.8553 9.83334 86.4997V93.4997C9.83334 94.144 10.3557 94.6663 11 94.6663Z" stroke="#121212" stroke-linecap="round" stroke-linejoin="round"/>
<path d="M25.9375 91.5V87.885H27.18C27.6383 87.885 27.9808 87.9667 28.2075 88.13C28.4358 88.2917 28.55 88.525 28.55 88.83C28.55 89.015 28.5025 89.175 28.4075 89.31C28.3125 89.445 28.145 89.5592 27.905 89.6525C28.0517 89.6875 28.1725 89.7358 28.2675 89.7975C28.3642 89.8575 28.4392 89.9267 28.4925 90.005C28.5458 90.0817 28.5833 90.1642 28.605 90.2525C28.6267 90.3408 28.6375 90.4317 28.6375 90.525C28.6375 90.855 28.5225 91.1 28.2925 91.26C28.0642 91.42 27.71 91.5 27.23 91.5H25.9375ZM26.545 91.015H27.2375C27.4942 91.015 27.6883 90.9692 27.82 90.8775C27.9533 90.7842 28.02 90.65 28.02 90.475C28.02 90.3483 27.9875 90.2442 27.9225 90.1625C27.8575 90.0792 27.7692 90.0175 27.6575 89.9775C27.5458 89.9375 27.4208 89.9175 27.2825 89.9175H26.545V91.015ZM26.545 89.425H27.2825C27.3675 89.425 27.45 89.4158 27.53 89.3975C27.61 89.3792 27.6825 89.35 27.7475 89.31C27.8125 89.27 27.8642 89.2167 27.9025 89.15C27.9425 89.0833 27.9625 89.0025 27.9625 88.9075C27.9625 88.7258 27.8933 88.5908 27.755 88.5025C27.6183 88.4125 27.4425 88.3675 27.2275 88.3675H26.545V89.425ZM29.4837 91.5V88.915H30.0662V89.475C30.1078 89.3467 30.167 89.2375 30.2437 89.1475C30.322 89.0558 30.4137 88.9858 30.5187 88.9375C30.6237 88.8892 30.7378 88.865 30.8612 88.865C30.8912 88.865 30.9203 88.8667 30.9487 88.87C30.977 88.8733 30.9978 88.8792 31.0112 88.8875V89.47C30.9928 89.4617 30.9687 89.4558 30.9387 89.4525C30.9103 89.4492 30.8853 89.4475 30.8637 89.4475C30.7387 89.4375 30.6278 89.4425 30.5312 89.4625C30.4362 89.4825 30.3553 89.5167 30.2887 89.565C30.2237 89.6117 30.1745 89.6717 30.1412 89.745C30.1078 89.8167 30.0912 89.9008 30.0912 89.9975V91.5H29.4837ZM32.4144 91.55C32.2494 91.55 32.1011 91.52 31.9694 91.46C31.8394 91.3983 31.7369 91.3108 31.6619 91.1975C31.5886 91.0825 31.5519 90.9433 31.5519 90.78C31.5519 90.495 31.6544 90.28 31.8594 90.135C32.0661 89.99 32.3952 89.9142 32.8469 89.9075L33.2319 89.8975V89.7225C33.2319 89.5858 33.1911 89.4792 33.1094 89.4025C33.0294 89.3242 32.9044 89.2858 32.7344 89.2875C32.6094 89.2892 32.4944 89.3192 32.3894 89.3775C32.2861 89.4342 32.2177 89.53 32.1844 89.665H31.6669C31.6769 89.4883 31.7277 89.3408 31.8194 89.2225C31.9127 89.1025 32.0402 89.0133 32.2019 88.955C32.3636 88.895 32.5502 88.865 32.7619 88.865C33.0086 88.865 33.2094 88.8975 33.3644 88.9625C33.5194 89.0275 33.6336 89.1217 33.7069 89.245C33.7802 89.3667 33.8169 89.5142 33.8169 89.6875V91.5H33.3044L33.2569 91.035C33.1636 91.23 33.0452 91.365 32.9019 91.44C32.7602 91.5133 32.5977 91.55 32.4144 91.55ZM32.6119 91.1375C32.6869 91.1375 32.7611 91.1242 32.8344 91.0975C32.9077 91.0692 32.9744 91.0317 33.0344 90.985C33.0944 90.9367 33.1419 90.8833 33.1769 90.825C33.2136 90.7667 33.2319 90.7058 33.2319 90.6425V90.235L32.9144 90.24C32.7577 90.2417 32.6211 90.2583 32.5044 90.29C32.3877 90.3217 32.2961 90.3725 32.2294 90.4425C32.1644 90.5108 32.1319 90.6025 32.1319 90.7175C32.1319 90.8492 32.1777 90.9525 32.2694 91.0275C32.3611 91.1008 32.4752 91.1375 32.6119 91.1375ZM34.7786 91.5V88.915H35.3736V89.285C35.4136 89.2183 35.4678 89.1542 35.5361 89.0925C35.6061 89.0308 35.6919 88.9808 35.7936 88.9425C35.8953 88.9042 36.0144 88.885 36.1511 88.885C36.3111 88.885 36.4594 88.9167 36.5961 88.98C36.7344 89.0433 36.8453 89.1425 36.9286 89.2775C37.0136 89.4125 37.0561 89.5867 37.0561 89.8V91.5H36.4461V89.8725C36.4461 89.7025 36.3994 89.5767 36.3061 89.495C36.2128 89.4117 36.0953 89.37 35.9536 89.37C35.8569 89.37 35.7653 89.3867 35.6786 89.42C35.5919 89.4517 35.5211 89.5008 35.4661 89.5675C35.4128 89.6325 35.3861 89.7142 35.3861 89.8125V91.5H34.7786ZM38.9058 91.55C38.5641 91.55 38.2958 91.4325 38.1008 91.1975C37.9058 90.9625 37.8083 90.6283 37.8083 90.195C37.8083 89.925 37.8474 89.6908 37.9258 89.4925C38.0058 89.2925 38.1224 89.1383 38.2758 89.03C38.4308 88.92 38.6224 88.865 38.8508 88.865C38.9574 88.865 39.0541 88.8783 39.1408 88.905C39.2291 88.93 39.3074 88.9633 39.3758 89.005C39.4441 89.0467 39.5016 89.0925 39.5483 89.1425C39.5966 89.1925 39.6341 89.2425 39.6608 89.2925V87.785H40.2708V91.5H39.8208L39.7533 90.97C39.7333 91.0317 39.7033 91.0967 39.6633 91.165C39.6249 91.2317 39.5724 91.2942 39.5058 91.3525C39.4408 91.4108 39.3591 91.4583 39.2608 91.495C39.1624 91.5317 39.0441 91.55 38.9058 91.55ZM39.0308 91.1025C39.2491 91.1025 39.4083 91.0317 39.5083 90.89C39.6099 90.7467 39.6608 90.51 39.6608 90.18C39.6591 89.9917 39.6358 89.8333 39.5908 89.705C39.5474 89.5767 39.4799 89.48 39.3883 89.415C39.2983 89.35 39.1816 89.3175 39.0383 89.3175C38.8549 89.3175 38.7041 89.385 38.5858 89.52C38.4674 89.655 38.4083 89.875 38.4083 90.18C38.4083 90.4833 38.4624 90.7133 38.5708 90.87C38.6791 91.025 38.8324 91.1025 39.0308 91.1025ZM42.6572 87.885C42.6722 87.885 42.7164 87.885 42.7897 87.885C42.8631 87.885 42.9497 87.885 43.0497 87.885C43.1514 87.885 43.2539 87.8858 43.3572 87.8875C43.4622 87.8875 43.5531 87.8883 43.6297 87.89C44.0697 87.8983 44.4272 87.9742 44.7022 88.1175C44.9789 88.2592 45.1814 88.4617 45.3097 88.725C45.4397 88.9867 45.5047 89.3025 45.5047 89.6725C45.5047 90.0592 45.4356 90.3883 45.2972 90.66C45.1606 90.9317 44.9506 91.14 44.6672 91.285C44.3856 91.4283 44.0272 91.5 43.5922 91.5H42.6572V87.885ZM43.2747 88.3875V90.9975H43.6022C43.8506 90.9975 44.0697 90.955 44.2597 90.87C44.4497 90.7833 44.5981 90.6433 44.7047 90.45C44.8131 90.2567 44.8672 89.9983 44.8672 89.675C44.8672 89.3617 44.8172 89.1108 44.7172 88.9225C44.6172 88.7342 44.4739 88.5983 44.2872 88.515C44.1006 88.43 43.8772 88.3875 43.6172 88.3875H43.2747Z" fill="#121212"/>
<path d="M9.83334 106.333L12.5084 103.658C12.964 103.202 13.7027 103.202 14.1583 103.658L16.8333 106.333M15.6667 105.166L16.5917 104.241C17.0473 103.786 17.786 103.786 18.2416 104.241L19.1667 105.166M15.6667 101.666H15.6725M11 108.666H18C18.6443 108.666 19.1667 108.144 19.1667 107.5V100.5C19.1667 99.8553 18.6443 99.333 18 99.333H11C10.3557 99.333 9.83334 99.8553 9.83334 100.5V107.5C9.83334 108.144 10.3557 108.666 11 108.666Z" stroke="#121212" stroke-linecap="round" stroke-linejoin="round"/>
<path d="M25.9375 105.5V101.885H27.18C27.6383 101.885 27.9808 101.967 28.2075 102.13C28.4358 102.292 28.55 102.525 28.55 102.83C28.55 103.015 28.5025 103.175 28.4075 103.31C28.3125 103.445 28.145 103.559 27.905 103.652C28.0517 103.687 28.1725 103.736 28.2675 103.797C28.3642 103.857 28.4392 103.927 28.4925 104.005C28.5458 104.082 28.5833 104.164 28.605 104.252C28.6267 104.341 28.6375 104.432 28.6375 104.525C28.6375 104.855 28.5225 105.1 28.2925 105.26C28.0642 105.42 27.71 105.5 27.23 105.5H25.9375ZM26.545 105.015H27.2375C27.4942 105.015 27.6883 104.969 27.82 104.877C27.9533 104.784 28.02 104.65 28.02 104.475C28.02 104.348 27.9875 104.244 27.9225 104.162C27.8575 104.079 27.7692 104.017 27.6575 103.977C27.5458 103.937 27.4208 103.917 27.2825 103.917H26.545V105.015ZM26.545 103.425H27.2825C27.3675 103.425 27.45 103.416 27.53 103.397C27.61 103.379 27.6825 103.35 27.7475 103.31C27.8125 103.27 27.8642 103.217 27.9025 103.15C27.9425 103.083 27.9625 103.002 27.9625 102.907C27.9625 102.726 27.8933 102.591 27.755 102.502C27.6183 102.412 27.4425 102.367 27.2275 102.367H26.545V103.425ZM29.4837 105.5V102.915H30.0662V103.475C30.1078 103.347 30.167 103.237 30.2437 103.147C30.322 103.056 30.4137 102.986 30.5187 102.937C30.6237 102.889 30.7378 102.865 30.8612 102.865C30.8912 102.865 30.9203 102.867 30.9487 102.87C30.977 102.873 30.9978 102.879 31.0112 102.887V103.47C30.9928 103.462 30.9687 103.456 30.9387 103.452C30.9103 103.449 30.8853 103.447 30.8637 103.447C30.7387 103.437 30.6278 103.442 30.5312 103.462C30.4362 103.482 30.3553 103.517 30.2887 103.565C30.2237 103.612 30.1745 103.672 30.1412 103.745C30.1078 103.817 30.0912 103.901 30.0912 103.997V105.5H29.4837ZM32.4144 105.55C32.2494 105.55 32.1011 105.52 31.9694 105.46C31.8394 105.398 31.7369 105.311 31.6619 105.197C31.5886 105.082 31.5519 104.943 31.5519 104.78C31.5519 104.495 31.6544 104.28 31.8594 104.135C32.0661 103.99 32.3952 103.914 32.8469 103.907L33.2319 103.897V103.722C33.2319 103.586 33.1911 103.479 33.1094 103.402C33.0294 103.324 32.9044 103.286 32.7344 103.287C32.6094 103.289 32.4944 103.319 32.3894 103.377C32.2861 103.434 32.2177 103.53 32.1844 103.665H31.6669C31.6769 103.488 31.7277 103.341 31.8194 103.222C31.9127 103.102 32.0402 103.013 32.2019 102.955C32.3636 102.895 32.5502 102.865 32.7619 102.865C33.0086 102.865 33.2094 102.897 33.3644 102.962C33.5194 103.027 33.6336 103.122 33.7069 103.245C33.7802 103.367 33.8169 103.514 33.8169 103.687V105.5H33.3044L33.2569 105.035C33.1636 105.23 33.0452 105.365 32.9019 105.44C32.7602 105.513 32.5977 105.55 32.4144 105.55ZM32.6119 105.137C32.6869 105.137 32.7611 105.124 32.8344 105.097C32.9077 105.069 32.9744 105.032 33.0344 104.985C33.0944 104.937 33.1419 104.883 33.1769 104.825C33.2136 104.767 33.2319 104.706 33.2319 104.642V104.235L32.9144 104.24C32.7577 104.242 32.6211 104.258 32.5044 104.29C32.3877 104.322 32.2961 104.372 32.2294 104.442C32.1644 104.511 32.1319 104.602 32.1319 104.717C32.1319 104.849 32.1777 104.952 32.2694 105.027C32.3611 105.101 32.4752 105.137 32.6119 105.137ZM34.7786 105.5V102.915H35.3736V103.285C35.4136 103.218 35.4678 103.154 35.5361 103.092C35.6061 103.031 35.6919 102.981 35.7936 102.942C35.8953 102.904 36.0144 102.885 36.1511 102.885C36.3111 102.885 36.4594 102.917 36.5961 102.98C36.7344 103.043 36.8453 103.142 36.9286 103.277C37.0136 103.412 37.0561 103.587 37.0561 103.8V105.5H36.4461V103.872C36.4461 103.702 36.3994 103.577 36.3061 103.495C36.2128 103.412 36.0953 103.37 35.9536 103.37C35.8569 103.37 35.7653 103.387 35.6786 103.42C35.5919 103.452 35.5211 103.501 35.4661 103.567C35.4128 103.632 35.3861 103.714 35.3861 103.812V105.5H34.7786ZM38.9058 105.55C38.5641 105.55 38.2958 105.432 38.1008 105.197C37.9058 104.962 37.8083 104.628 37.8083 104.195C37.8083 103.925 37.8474 103.691 37.9258 103.492C38.0058 103.292 38.1224 103.138 38.2758 103.03C38.4308 102.92 38.6224 102.865 38.8508 102.865C38.9574 102.865 39.0541 102.878 39.1408 102.905C39.2291 102.93 39.3074 102.963 39.3758 103.005C39.4441 103.047 39.5016 103.092 39.5483 103.142C39.5966 103.192 39.6341 103.242 39.6608 103.292V101.785H40.2708V105.5H39.8208L39.7533 104.97C39.7333 105.032 39.7033 105.097 39.6633 105.165C39.6249 105.232 39.5724 105.294 39.5058 105.352C39.4408 105.411 39.3591 105.458 39.2608 105.495C39.1624 105.532 39.0441 105.55 38.9058 105.55ZM39.0308 105.102C39.2491 105.102 39.4083 105.032 39.5083 104.89C39.6099 104.747 39.6608 104.51 39.6608 104.18C39.6591 103.992 39.6358 103.833 39.5908 103.705C39.5474 103.577 39.4799 103.48 39.3883 103.415C39.2983 103.35 39.1816 103.317 39.0383 103.317C38.8549 103.317 38.7041 103.385 38.5858 103.52C38.4674 103.655 38.4083 103.875 38.4083 104.18C38.4083 104.483 38.4624 104.713 38.5708 104.87C38.6791 105.025 38.8324 105.102 39.0308 105.102ZM42.6572 105.5V101.885H45.0472L45.0447 102.407H43.2697V103.42H44.8372V103.935H43.2647V104.97L45.0822 104.972V105.5H42.6572Z" fill="#121212"/>
<g opacity="0.4">
<path d="M9.83334 120.333L12.5084 117.658C12.964 117.202 13.7027 117.202 14.1583 117.658L16.8333 120.333M15.6667 119.166L16.5917 118.241C17.0473 117.786 17.786 117.786 18.2416 118.241L19.1667 119.166M15.6667 115.666H15.6725M11 122.666H18C18.6443 122.666 19.1667 122.144 19.1667 121.5V114.5C19.1667 113.855 18.6443 113.333 18 113.333H11C10.3557 113.333 9.83334 113.855 9.83334 114.5V121.5C9.83334 122.144 10.3557 122.666 11 122.666Z" stroke="#121212" stroke-linecap="round" stroke-linejoin="round"/>
</g>
</g>
<rect x="4" y="0.5" width="115" height="112" stroke="#D4D4D4"/>
</g>
<defs>
<clipPath id="clip0_58269_202696">
<rect x="3.5" width="116" height="113" fill="white"/>
</clipPath>
</defs>
</svg>
